<?xml version="1.0" standalone="no"?>
<!DOCTYPE svg PUBLIC "-//W3C//DTD SVG 20010904//EN"
 "http://www.w3.org/TR/2001/REC-SVG-20010904/DTD/svg10.dtd">
<svg version="1.0" xmlns="http://www.w3.org/2000/svg"
 width="455.000000pt" height="455.000000pt" viewBox="0 0 455.000000 455.000000"
 preserveAspectRatio="xMidYMid meet">
<metadata>
Created by potrace 1.11, written by Peter Selinger 2001-2013
</metadata>
<g transform="translate(0.000000,455.000000) scale(0.100000,-0.100000)"
fill="#000000" stroke="none">
<path d="M2040 4381 c-47 -10 -121 -23 -165 -30 -44 -7 -102 -22 -130 -33 -27
-11 -59 -21 -70 -22 -11 -1 -31 -7 -45 -13 -14 -6 -43 -16 -65 -22 -22 -7 -49
-16 -60 -21 -11 -4 -38 -15 -60 -25 -22 -9 -52 -23 -68 -31 -15 -8 -32 -12
-37 -9 -6 3 -10 1 -10 -5 0 -7 -6 -10 -14 -7 -9 4 -16 -2 -19 -15 -4 -15 -11
-19 -26 -15 -12 3 -19 1 -15 -4 5 -8 -9 -13 -28 -10 -4 0 -10 -8 -13 -19 -4
-11 -11 -18 -16 -15 -5 4 -9 1 -9 -6 0 -6 -8 -9 -19 -6 -14 3 -21 -2 -26 -17
-4 -14 -8 -17 -12 -8 -4 10 -9 8 -20 -7 -8 -12 -21 -21 -29 -21 -10 0 -12 -5
-8 -12 5 -8 0 -7 -11 2 -17 14 -18 13 -12 -4 6 -15 4 -17 -14 -13 -16 4 -19 2
-15 -10 4 -10 2 -14 -6 -11 -16 6 -60 -37 -50 -48 4 -4 -1 -4 -10 -1 -12 4
-15 2 -11 -9 3 -9 -1 -14 -12 -14 -10 0 -13 -5 -9 -12 5 -8 2 -9 -9 -5 -10 3
-17 2 -17 -4 0 -6 -5 -7 -12 -3 -8 5 -9 2 -5 -10 5 -13 3 -17 -6 -13 -7 3 -19
-4 -26 -14 -6 -11 -17 -17 -23 -13 -8 5 -9 1 -5 -10 6 -14 3 -17 -8 -12 -9 3
-14 2 -11 -3 3 -4 -1 -17 -9 -27 -13 -16 -16 -17 -25 -4 -8 12 -10 11 -10 -8
0 -15 -4 -21 -12 -16 -8 5 -9 2 -5 -10 5 -14 3 -17 -8 -12 -9 3 -15 0 -15 -10
0 -9 -5 -12 -12 -8 -7 4 -8 3 -4 -4 7 -12 -6 -44 -17 -43 -22 3 -28 -1 -25
-16 2 -10 -2 -17 -9 -16 -6 1 -18 -13 -27 -32 -10 -19 -21 -35 -25 -35 -5 0
-11 -10 -14 -22 -4 -12 -9 -19 -13 -15 -7 7 -41 -41 -40 -55 1 -4 -8 -13 -18
-21 -11 -8 -16 -19 -12 -25 4 -7 1 -12 -10 -12 -12 0 -15 -6 -11 -21 4 -15 2
-19 -10 -15 -9 4 -13 1 -10 -6 2 -7 -5 -25 -15 -40 -11 -16 -17 -28 -14 -28 3
0 -3 -9 -14 -20 -12 -12 -18 -25 -15 -29 2 -5 -2 -14 -9 -21 -8 -6 -18 -25
-21 -41 -4 -16 -10 -29 -14 -29 -4 0 -7 -10 -8 -22 -1 -11 -6 -24 -12 -27 -5
-4 -13 -19 -16 -34 -4 -15 -11 -27 -16 -27 -5 0 -9 -9 -9 -20 0 -11 -5 -20
-11 -20 -6 0 -9 -9 -6 -20 3 -11 1 -20 -4 -20 -5 0 -9 -9 -9 -19 0 -11 -4 -22
-9 -25 -5 -4 -8 -22 -7 -41 2 -19 0 -35 -3 -35 -8 0 -38 -76 -47 -120 -9 -44
-12 -64 -18 -122 -2 -26 -7 -51 -10 -56 -3 -6 -6 -21 -5 -33 0 -13 -4 -51 -9
-84 -14 -86 -3 -479 16 -550 6 -22 13 -53 15 -70 3 -16 10 -50 17 -75 7 -25
13 -49 14 -55 2 -5 9 -30 16 -55 7 -25 14 -49 14 -55 6 -66 214 -485 266 -535
12 -12 42 -72 37 -76 -2 -3 10 -20 27 -38 17 -18 60 -68 96 -111 91 -108 265
-275 287 -275 5 0 22 -14 39 -31 16 -17 48 -40 71 -50 23 -10 48 -27 55 -38 7
-12 18 -21 24 -21 6 0 24 -12 39 -26 16 -15 56 -39 89 -54 122 -55 161 -74
167 -82 3 -4 48 -23 100 -42 52 -19 105 -38 119 -44 33 -13 304 -72 350 -77
113 -12 206 -17 285 -15 301 5 355 8 400 20 215 57 653 198 732 237 91 44 203
108 213 121 3 4 41 34 85 66 72 54 183 161 320 308 75 80 159 204 191 283 9
22 32 74 51 115 54 115 109 280 118 355 3 17 15 69 29 116 27 92 33 121 41
184 3 22 7 51 10 65 23 125 26 424 6 560 -7 47 -14 100 -17 119 -2 18 -16 65
-30 105 -14 39 -27 87 -29 106 -12 109 -175 478 -255 577 -14 16 -51 62 -83
102 -32 40 -80 93 -106 119 -26 26 -74 81 -107 122 -69 87 -104 122 -157 156
-21 14 -49 35 -63 47 -14 12 -45 33 -69 47 -51 29 -188 121 -195 131 -3 3 -23
14 -45 25 -22 10 -42 20 -45 23 -7 8 -49 26 -95 41 -22 7 -56 20 -75 28 -19 9
-37 16 -40 17 -3 0 -25 8 -50 16 -146 51 -219 70 -328 83 -24 3 -47 8 -51 11
-23 14 -176 27 -346 30 -151 2 -207 0 -275 -14z"/>
</g>
</svg>
